<?xml version="1.0" encoding="utf-8"?>
<!-- Generator: Adobe Illustrator 24.3.0, SVG Export Plug-In . SVG Version: 6.00 Build 0)  -->
<svg version="1.1" id="レイヤー_1" xmlns="http://www.w3.org/2000/svg" xmlns:xlink="http://www.w3.org/1999/xlink" x="0px"
	 y="0px" viewBox="0 0 330.85 192.04" style="enable-background:new 0 0 330.85 192.04;" xml:space="preserve">
<style type="text/css">
	.st0{fill:#FFFFFF;}
</style>
<g>
	<g>
		<path class="st0" d="M0,137.91h22.22c4.36,0,7.7,0.96,10.01,2.88c2.31,1.92,3.47,4.33,3.47,7.23c0,2.42-0.81,4.47-2.42,6.16
			c-1.61,1.69-4.04,3.02-7.29,4c4.02,0.85,7.03,2.18,9.03,4c2.01,1.81,3.01,4.11,3.01,6.88c0,2.11-0.57,3.99-1.71,5.63
			c-1.15,1.63-3.05,3.01-5.71,4.15c-2.66,1.13-5.68,1.7-9.06,1.7H0v-2.16h3.52c1.06,0,1.83-0.17,2.32-0.52
			c0.49-0.35,0.74-0.74,0.74-1.18v-34.15c0-0.81-0.24-1.41-0.72-1.83c-0.48-0.41-1.18-0.62-2.1-0.62H0V137.91z M12.74,157.48h8.07
			c2.48,0,4.45-0.73,5.92-2.19c1.47-1.46,2.21-3.85,2.21-7.17c0-2.05-0.35-3.65-1.06-4.8c-0.7-1.15-1.72-1.99-3.05-2.52
			c-1.33-0.53-3.65-0.79-6.93-0.79c-2.32,0-3.77,0.17-4.32,0.5c-0.56,0.33-0.84,0.93-0.84,1.77V157.48z M12.74,159.64v16.43
			c0,0.76,0.23,1.34,0.68,1.73c0.45,0.38,1.27,0.57,2.44,0.57h5.16c3.42,0,5.95-0.75,7.58-2.26c1.63-1.51,2.45-3.86,2.45-7.05
			c0-2.92-0.85-5.22-2.54-6.9c-1.69-1.68-4.03-2.52-7-2.52H12.74z"/>
		<path class="st0" d="M54.5,152.72c3.63,0,6.68,1.31,9.15,3.94c2.47,2.62,3.71,6.08,3.71,10.36c0,2.96-0.55,5.48-1.66,7.56
			c-1.11,2.09-2.68,3.73-4.72,4.94c-2.05,1.21-4.25,1.82-6.61,1.82c-3.5,0-6.46-1.33-8.89-3.98c-2.43-2.65-3.65-6.09-3.65-10.32
			c0-4.25,1.22-7.69,3.66-10.35C47.92,154.05,50.92,152.72,54.5,152.72z M54.5,154.77c-2.15,0-3.92,0.97-5.3,2.93
			c-1.38,1.95-2.08,5.03-2.08,9.24c0,4.29,0.69,7.42,2.06,9.39c1.37,1.98,3.15,2.97,5.32,2.97c2.25,0,4.07-0.99,5.46-2.97
			c1.39-1.98,2.09-5.21,2.09-9.71c0-4.17-0.69-7.18-2.06-9.05C58.62,155.7,56.78,154.77,54.5,154.77z"/>
		<path class="st0" d="M80.52,153.04v17.9c0,2.19,0.55,3.88,1.65,5.07c1.1,1.19,2.53,1.79,4.27,1.79c2.15,0,3.97-0.87,5.48-2.61
			c1.5-1.74,2.26-3.91,2.26-6.53v-10.11c0-0.93-0.33-1.64-0.99-2.15c-0.67-0.51-1.94-0.79-3.82-0.85v-2.01l9.48-0.5v22.16
			c0,1.02,0.29,1.8,0.86,2.35c0.58,0.55,1.39,0.82,2.42,0.82h1.7v1.93l-9.08,0.2l-0.58-5.3c-1.61,1.91-3.23,3.33-4.86,4.29
			c-1.63,0.96-3.28,1.44-4.95,1.44c-2.43,0-4.48-0.82-6.13-2.45c-1.67-1.62-2.5-4.35-2.5-8.21v-11.73c0-1.04-0.41-1.83-1.24-2.37
			c-0.58-0.38-1.76-0.59-3.55-0.64v-2.01L80.52,153.04z"/>
		<path class="st0" d="M117.53,137.42v39.14c0,0.54,0.16,0.95,0.49,1.24c0.48,0.38,1.07,0.57,1.76,0.57h2.86v2.16h-15.31v-2.16h2.71
			c0.88,0,1.54-0.21,1.97-0.63c0.43-0.42,0.65-1.02,0.65-1.79V143.1c0-0.96-0.26-1.66-0.78-2.11c-0.71-0.61-1.59-0.92-2.62-0.92
			h-2.42v-2.16L117.53,137.42z"/>
		<path class="st0" d="M154.45,177.57l1.04,1.61c-1.4,1.44-2.96,2.16-4.67,2.16c-1.3,0-2.4-0.36-3.3-1.07
			c-0.89-0.71-1.67-1.96-2.35-3.75c-1.82,1.92-3.43,3.2-4.81,3.85c-1.38,0.64-3.05,0.96-4.99,0.96c-2.76,0-4.87-0.59-6.31-1.79
			c-1.44-1.19-2.16-2.72-2.16-4.58c0-2.81,1.64-5.13,4.94-6.99c3.3-1.86,7.68-3.09,13.16-3.71v-4.09c0-1.46-0.58-2.7-1.76-3.74
			c-1.17-1.04-2.66-1.56-4.47-1.56c-1.67,0-3.11,0.34-4.32,1.03c-0.86,0.52-1.29,1.03-1.29,1.53c0,0.29,0.23,0.74,0.69,1.35
			c0.56,0.77,0.83,1.45,0.83,2.04c0,0.87-0.28,1.57-0.83,2.12c-0.56,0.55-1.28,0.82-2.19,0.82c-0.96,0-1.76-0.32-2.4-0.98
			c-0.65-0.66-0.96-1.49-0.96-2.51c0-1.9,1.07-3.64,3.21-5.22c2.15-1.57,4.96-2.36,8.43-2.36c3.21,0,5.66,0.69,7.35,2.08
			c1.69,1.4,2.54,3.1,2.54,5.1v14.76c0,1.3,0.21,2.27,0.64,2.88c0.42,0.64,0.97,0.95,1.64,0.95
			C152.83,178.49,153.62,178.18,154.45,177.57z M145,166.18c-4.88,0.67-8.34,1.77-10.38,3.28c-1.52,1.16-2.28,2.79-2.28,4.9
			c0,1.48,0.39,2.63,1.18,3.47c0.79,0.84,1.82,1.25,3.09,1.25c2.26,0,4.23-0.86,5.89-2.58c1.66-1.72,2.5-3.88,2.5-6.47V166.18z"/>
		<path class="st0" d="M158.74,153.53l8.96-0.55c0.37,1.69,0.64,3.67,0.81,5.94c1.21-1.96,2.64-3.43,4.28-4.41
			c1.64-0.98,3.5-1.47,5.57-1.47c1.79,0,3.28,0.36,4.5,1.06c1.21,0.7,2.18,1.81,2.91,3.33c0.73,1.52,1.09,3.22,1.09,5.1v13.14
			c0,0.98,0.22,1.67,0.66,2.09c0.44,0.41,1.18,0.62,2.22,0.62h1.9v2.16h-14.24v-2.16h1.35c1.27,0,2.16-0.2,2.65-0.6
			c0.5-0.4,0.75-1.01,0.75-1.81V164.4c0-2.51-0.39-4.38-1.15-5.59c-1.08-1.73-2.71-2.59-4.9-2.59c-2.17,0-3.98,0.88-5.44,2.62
			c-1.45,1.75-2.17,4.03-2.17,6.83v10c0,0.98,0.23,1.67,0.68,2.09c0.45,0.41,1.2,0.62,2.23,0.62h1.88v2.16H159v-2.16h1.87
			c0.94,0,1.66-0.19,2.15-0.57c0.49-0.39,0.74-0.87,0.74-1.44v-17.43c0-1.16-0.31-2.03-0.94-2.63c-0.63-0.59-1.52-0.89-2.69-0.89
			h-1.39V153.53z"/>
		<path class="st0" d="M215.49,155.06c1.92-1.94,3.68-2.91,5.3-2.91c0.96,0,1.76,0.3,2.39,0.92c0.63,0.61,0.95,1.36,0.95,2.25
			c0,0.71-0.21,1.3-0.64,1.77c-0.43,0.47-0.94,0.71-1.52,0.71c-1.1,0-1.84-0.67-2.22-2.02c-0.16-0.58-0.41-0.86-0.78-0.86
			c-0.65,0-1.36,0.43-2.13,1.3c0.83,1.13,1.39,2.12,1.7,2.96c0.31,0.83,0.46,1.73,0.46,2.69c0,1.67-0.4,3.15-1.21,4.42
			c-0.81,1.28-2.15,2.41-4.02,3.39c-1.88,0.98-3.67,1.47-5.38,1.47h-3.14c-2.23,0-3.71,0.23-4.44,0.7c-0.73,0.48-1.09,1.18-1.09,2.1
			c0,0.75,0.3,1.33,0.89,1.73c0.6,0.4,1.72,0.61,3.37,0.61l7.12-0.14c3.59,0,6.18,0.6,7.76,1.8c1.59,1.21,2.38,2.85,2.38,4.94
			c0,2.31-0.9,4.25-2.71,5.82c-2.52,2.23-6.27,3.34-11.26,3.34c-4.13,0-7.2-0.76-9.2-2.28c-1.58-1.19-2.36-2.53-2.36-4.01
			c0-1.13,0.5-2.17,1.51-3.11c1.01-0.94,2.7-1.65,5.08-2.11c-1.9-0.46-3.33-1.14-4.29-2.04c-0.96-0.89-1.44-2-1.44-3.33
			c0-1.23,0.39-2.3,1.17-3.21c0.78-0.91,2.13-1.69,4.05-2.35c-1.64-0.9-2.86-1.99-3.69-3.27c-0.83-1.28-1.24-2.74-1.24-4.4
			c0-2.61,1.02-4.8,3.08-6.57c2.06-1.77,4.73-2.66,8.01-2.66c1.34,0,2.64,0.19,3.89,0.58C213.11,153.69,214.32,154.27,215.49,155.06
			z M209.61,180.56c-3.54,0-6.06,0.49-7.56,1.47c-1.51,0.98-2.26,2.16-2.26,3.54c0,1.31,0.56,2.34,1.7,3.08c1.5,1,3.63,1.5,6.4,1.5
			c3.31,0,5.79-0.54,7.46-1.64c1.67-1.1,2.51-2.32,2.51-3.66c0-0.79-0.26-1.53-0.78-2.2c-0.52-0.69-1.35-1.2-2.48-1.56
			C213.46,180.74,211.8,180.56,209.61,180.56z M207.91,154.57c-1.71,0-3.13,0.63-4.24,1.89c-1.11,1.26-1.67,3.02-1.67,5.29
			c0,2.42,0.56,4.3,1.67,5.63c1.12,1.33,2.54,2,4.27,2c1.73,0,3.14-0.64,4.25-1.94c1.11-1.29,1.66-3.15,1.66-5.58
			c0-2.24-0.56-4.02-1.69-5.33C211.04,155.23,209.62,154.57,207.91,154.57z"/>
		<path class="st0" d="M251.83,167.22h-19.34c0.1,4.11,0.86,7.01,2.31,8.7c1.65,1.9,3.76,2.86,6.31,2.86c3.76,0,6.79-2.14,9.08-6.43
			l1.87,0.81c-2.81,5.46-6.86,8.18-12.16,8.18c-3.61,0-6.65-1.3-9.12-3.92c-2.47-2.61-3.7-5.96-3.7-10.03
			c0-4.38,1.21-7.92,3.65-10.62c2.43-2.69,5.42-4.05,8.98-4.05c2.61,0,4.87,0.68,6.78,2.02c1.9,1.35,3.33,3.27,4.29,5.79
			C251.43,162.3,251.79,164.53,251.83,167.22z M232.49,165.17h11.7c0.69,0,1.23-0.23,1.61-0.7c0.39-0.47,0.58-1.28,0.58-2.41
			c0-2.11-0.66-3.91-1.97-5.39c-1.32-1.48-2.87-2.22-4.65-2.22c-2,0-3.7,0.89-5.09,2.68C233.28,158.92,232.55,161.6,232.49,165.17z"
			/>
		<path class="st0" d="M255.58,153.53l9.71-0.5v10.93c1.04-3.59,2.29-6.31,3.75-8.16c1.46-1.85,3.26-2.77,5.42-2.77
			c1.46,0,2.63,0.45,3.5,1.34c0.87,0.89,1.31,2.09,1.31,3.59c0,1.21-0.29,2.16-0.88,2.82c-0.58,0.67-1.33,1.01-2.21,1.01
			c-0.86,0-1.56-0.29-2.09-0.87c-0.53-0.58-0.79-1.35-0.79-2.33c0-0.64,0.15-1.23,0.46-1.79c0.29-0.5,0.43-0.8,0.43-0.9
			c0-0.29-0.18-0.43-0.55-0.43c-0.79,0-1.68,0.46-2.68,1.38c-1.38,1.28-2.45,3.06-3.2,5.3c-1.15,3.5-1.73,6.29-1.73,8.39v5.79
			c0,0.65,0.23,1.15,0.69,1.5c0.46,0.35,1.25,0.52,2.36,0.52h3.43v2.16h-16.77v-2.16h2.68c0.9,0,1.59-0.18,2.05-0.53
			c0.46-0.35,0.69-0.78,0.69-1.28v-17.2c0-1.31-0.28-2.26-0.84-2.87c-0.55-0.61-1.35-0.91-2.39-0.91h-2.37V153.53z"/>
		<path class="st0" d="M281.68,153.53l10.75-0.32v23.23c0,0.63,0.15,1.09,0.46,1.35c0.44,0.38,1,0.57,1.67,0.57h3.05v2.16h-15.36
			v-2.16h2.85c0.85,0,1.47-0.2,1.86-0.62c0.39-0.41,0.59-1.02,0.59-1.8v-17.01c0-1.08-0.31-1.89-0.93-2.43
			c-0.61-0.55-1.53-0.82-2.74-0.82h-2.22V153.53z M289.18,137.42c0.87,0,1.62,0.33,2.28,0.98c0.65,0.65,0.97,1.42,0.97,2.31
			c0,0.86-0.32,1.61-0.95,2.25c-0.64,0.64-1.4,0.95-2.28,0.95c-0.89,0-1.65-0.32-2.29-0.96c-0.64-0.64-0.96-1.4-0.96-2.26
			c0-0.87,0.32-1.62,0.98-2.28C287.58,137.75,288.34,137.42,289.18,137.42z"/>
		<path class="st0" d="M326.13,167.22h-19.34c0.1,4.11,0.86,7.01,2.3,8.7c1.66,1.9,3.76,2.86,6.32,2.86c3.77,0,6.79-2.14,9.08-6.43
			l1.87,0.81c-2.81,5.46-6.86,8.18-12.16,8.18c-3.61,0-6.65-1.3-9.12-3.92c-2.47-2.61-3.7-5.96-3.7-10.03
			c0-4.38,1.21-7.92,3.64-10.62c2.43-2.69,5.43-4.05,8.98-4.05c2.61,0,4.87,0.68,6.78,2.02c1.9,1.35,3.33,3.27,4.29,5.79
			C325.73,162.3,326.09,164.53,326.13,167.22z M306.79,165.17h11.7c0.69,0,1.23-0.23,1.61-0.7c0.39-0.47,0.58-1.28,0.58-2.41
			c0-2.11-0.66-3.91-1.97-5.39c-1.32-1.48-2.87-2.22-4.66-2.22c-2,0-3.69,0.89-5.09,2.68C307.57,158.92,306.85,161.6,306.79,165.17z
			"/>
	</g>
	<g>
		<path class="st0" d="M0.12,2.32h47.3v5.61h-8.68c-3.04,0-5.02,0.53-5.95,1.6c-0.92,1.08-1.39,3.68-1.39,7.82v34.13H82V17.36
			c0-4.29-0.44-6.94-1.31-7.94c-0.88-1-2.94-1.49-6.17-1.49h-8.09V2.32h47.01v5.61h-8.61c-2.14,0-3.65,0.27-4.53,0.82
			c-0.87,0.54-1.58,1.49-2.13,2.84c-0.3,0.85-0.45,3.07-0.45,6.66v79.64c0,3.84,0.32,6.16,0.97,6.96c1.3,1.7,3.67,2.55,7.11,2.55
			h7.64v5.61H66.43v-5.61h8.09c3.19,0,5.36-0.88,6.5-2.62c0.65-0.95,0.98-3.44,0.98-7.48V58.82H31.4v39.07c0,3.89,0.3,6.24,0.9,7.04
			c1.24,1.65,3.39,2.47,6.43,2.47h8.68v5.61H0.12v-5.61h9.05c1.6,0,2.87-0.33,3.82-0.97c0.95-0.65,1.65-1.58,2.1-2.77
			c0.25-0.8,0.37-2.92,0.37-6.36V17.36c0-4.14-0.46-6.75-1.38-7.82c-0.93-1.07-2.93-1.6-6.03-1.6H0.12V2.32z"/>
		<path class="st0" d="M174.18,0h5.01l39.69,101.26c1.6,4.09,4.87,6.14,9.8,6.14h3.45v5.61h-44.16v-5.61h3.52
			c4.59,0,7.83-0.51,9.73-1.5c1.3-0.7,1.94-1.77,1.94-3.22c0-0.84-0.17-1.75-0.52-2.7l-9.16-23.5h-43.78l-5.15,13.47
			c-1.35,3.59-2.02,6.43-2.02,8.53c0,2.44,1.13,4.54,3.4,6.29c2.27,1.75,5.58,2.62,9.92,2.62h3.74v5.61H119.5v-5.61
			c4.29,0,7.68-0.94,10.18-2.81c2.49-1.87,4.79-5.43,6.88-10.67L174.18,0z M172,21.32l-19.88,49.32h39.1L172,21.32z"/>
		<path class="st0" d="M236.1,2.32h51.34v5.61h-12.27c-1.94,0-3.38,0.51-4.3,1.53c-0.92,1.02-1.39,2.63-1.39,4.83v87.34
			c0,2.1,0.59,3.59,1.76,4.46c1.17,0.87,3.53,1.31,7.06,1.31h15.54c8.28,0,15.04-2.76,20.3-8.27c5.25-5.51,9.08-15.08,11.47-28.7
			h5.24l-2.54,42.58H236.1v-5.61h9.06c3.09,0,5.26-0.59,6.51-1.76c1.25-1.17,1.87-3.06,1.87-5.66V13.54c0-1.85-0.52-3.24-1.57-4.19
			c-1.04-0.95-2.59-1.42-4.64-1.42H236.1V2.32z"/>
	</g>
</g>
</svg>
